<!-- <?xml version="1.0" encoding="utf-8"?>
<svg width="535.1797px" height="444px" viewBox="0 0 535.1797 444" version="1.1" xmlns:xlink="http://www.w3.org/1999/xlink" xmlns="http://www.w3.org/2000/svg">
  <path d="M242 324L186.5 269.5L186.5 444L366 444L302.978 383.011L242 324Z" id="Vector" fill="#15133D" fill-rule="evenodd" stroke="none" />
  <path d="M534.5 414.5C533.333 410.834 533.942 403.132 528.536 390.5C521.802 374.765 520.333 372.167 518.5 369.5C516.667 366.834 478 300 400 302C322 304 299.5 382 299.5 382L236.5 326.5C236.5 326.5 344.334 210.333 450.501 278.5C556.667 346.667 531.666 417.834 534.5 414.5Z" id="Vector-2" fill="#15133D" fill-rule="evenodd" stroke="none" />
</svg> -->
 <svg id="sw-js-blob-svg" viewBox="0 0 100 100" xmlns="http://www.w3.org/2000/svg">                   
  <defs>                         <linearGradient id="sw-gradient" x1="0" x2="1" y1="1" y2="0">  
                            <stop id="stop1" stop-color="rgba(248, 117, 55, 1)" offset="0%"></stop>   
                                                     <stop id="stop2" stop-color="rgba(251, 168, 31, 1)" offset="100%"></stop>    
                                                                         </linearGradient>                    </defs>               
                                                                          <path fill="url(#sw-gradient)" d="M25,-29.7C32.6,-23.4,39.2,-15.7,40.2,-7.5C41.2,0.8,36.7,9.7,31.8,18.5C26.9,27.4,21.7,36.3,14.6,38C7.5,39.6,-1.4,34,-9.2,29.4C-17.1,24.8,-23.8,21.2,-28.7,15.3C-33.7,9.4,-36.9,1.1,-35.8,-6.6C-34.8,-14.3,-29.4,-21.4,-22.7,-27.9C-16,-34.3,-8,-40,0.3,-40.4C8.7,-40.8,17.4,-36,25,-29.7Z" width="100%" height="100%" transform="translate(50 50)" style="transition: all 0.3s ease 0s;" stroke-width="0"></path>            
                                                                            </svg>